<?xml version="1.0" standalone="no"?><!DOCTYPE svg PUBLIC "-//W3C//DTD SVG 1.1//EN" "http://www.w3.org/Graphics/SVG/1.1/DTD/svg11.dtd"><svg t="1724084212459" class="icon" viewBox="0 0 1024 1024" version="1.1" xmlns="http://www.w3.org/2000/svg" p-id="12528" xmlns:xlink="http://www.w3.org/1999/xlink" width="200" height="200"><path d="M641.2 958.5c-20.3 0-40.2-7.1-56.2-20.6L357.8 747c-18.9-15.9-21.4-44.1-5.5-63 15.9-18.9 44.1-21.3 63-5.5l224.9 189 198.6-711.4L191.1 490l105 88.2c18.9 15.9 21.4 44.1 5.5 63-15.9 18.9-44.1 21.3-63 5.5l-107.2-90.1c-22.5-18.9-33.9-47.6-30.7-76.7 3.3-29.2 20.8-54.6 46.9-68l656-338.1c31.1-16 67.3-12.3 94.4 9.8 27.2 22.1 38.2 56.8 28.8 90.5L725.6 894.5c-8 28.8-29.9 51.2-58.4 60.1-8.6 2.6-17.4 3.9-26 3.9z" fill="#ff552e" p-id="12529"></path><path d="M376.3 958.5c-24.7 0-44.7-20-44.7-44.7v-205c0-10.5 3.7-20.6 10.4-28.6l492.8-591c15.8-19 44-21.5 63-5.7s21.5 44 5.7 63L421.1 725v188.7c0 24.7-20.1 44.8-44.8 44.8z" fill="#ff552e" p-id="12530"></path></svg>